<?xml version="1.0" encoding="UTF-8" standalone="no"?><svg xmlns="http://www.w3.org/2000/svg" xmlns:xlink="http://www.w3.org/1999/xlink" contentStyleType="text/css" height="945px" preserveAspectRatio="none" style="width:1820px;height:945px;background:#FFFFFF;" version="1.1" viewBox="0 0 1820 945" width="1820px" zoomAndPan="magnify"><defs/><g><!--MD5=[219e3b0e571a795e7845d490f5dd3922]
class TypeTrain--><g id="elem_TypeTrain"><rect codeLine="4" fill="#F1F1F1" height="123.7813" id="TypeTrain" rx="2.5" ry="2.5" style="stroke:#181818;stroke-width:0.5;" width="209" x="1604.5" y="223.5"/><text fill="#000000" font-family="sans-serif" font-size="14" lengthAdjust="spacing" textLength="68" x="1675" y="241.4951">TypeTrain</text><line style="stroke:#181818;stroke-width:0.5;" x1="1605.5" x2="1812.5" y1="249.7969" y2="249.7969"/><text fill="#000000" font-family="sans-serif" font-size="14" lengthAdjust="spacing" textLength="129" x="1610.5" y="266.792">nom : string {key}</text><text fill="#000000" font-family="sans-serif" font-size="14" lengthAdjust="spacing" textLength="176" x="1610.5" y="283.0889">nbPlace : integer {&gt;= 0}</text><text fill="#000000" font-family="sans-serif" font-size="14" lengthAdjust="spacing" textLength="197" x="1610.5" y="299.3857">vitesseMax : Integer {&gt;= 0}</text><text fill="#000000" font-family="sans-serif" font-size="14" lengthAdjust="spacing" textLength="159" x="1610.5" y="315.6826">aPremiereClasse : bool</text><text fill="#000000" font-family="sans-serif" font-size="14" lengthAdjust="spacing" textLength="158" x="1610.5" y="331.9795">coutHeure : float {&gt;0}</text><line style="stroke:#181818;stroke-width:0.5;" x1="1605.5" x2="1812.5" y1="339.2813" y2="339.2813"/></g><!--MD5=[ff74e0f0bb3fa51f8c743cb54bdb5b13]
class Train--><g id="elem_Train"><rect codeLine="12" fill="#F1F1F1" height="58.5938" id="Train" rx="2.5" ry="2.5" style="stroke:#181818;stroke-width:0.5;" width="174" x="1309" y="256"/><text fill="#000000" font-family="sans-serif" font-size="14" lengthAdjust="spacing" textLength="34" x="1379" y="273.9951">Train</text><line style="stroke:#181818;stroke-width:0.5;" x1="1310" x2="1482" y1="282.2969" y2="282.2969"/><text fill="#000000" font-family="sans-serif" font-size="14" lengthAdjust="spacing" textLength="162" x="1315" y="299.292">numero : integer {key}</text><line style="stroke:#181818;stroke-width:0.5;" x1="1310" x2="1482" y1="306.5938" y2="306.5938"/></g><!--MD5=[29fd02854dc779f7f51704ab7ef04435]
class Voyageur--><g id="elem_Voyageur"><rect codeLine="17" fill="#F1F1F1" height="107.4844" id="Voyageur" rx="2.5" ry="2.5" style="stroke:#181818;stroke-width:0.5;" width="138" x="479" y="7"/><text fill="#000000" font-family="sans-serif" font-size="14" lengthAdjust="spacing" textLength="65" x="515.5" y="24.9951">Voyageur</text><line style="stroke:#181818;stroke-width:0.5;" x1="480" x2="616" y1="33.2969" y2="33.2969"/><text fill="#000000" font-family="sans-serif" font-size="14" lengthAdjust="spacing" textLength="83" x="485" y="50.292">nom : string</text><text fill="#000000" font-family="sans-serif" font-size="14" lengthAdjust="spacing" textLength="106" x="485" y="66.5889">prenom : string</text><text fill="#000000" font-family="sans-serif" font-size="14" lengthAdjust="spacing" textLength="126" x="485" y="82.8857">adresse : Adresse</text><text fill="#000000" font-family="sans-serif" font-size="14" lengthAdjust="spacing" textLength="115" x="485" y="99.1826">tel : string {key}</text><line style="stroke:#181818;stroke-width:0.5;" x1="480" x2="616" y1="106.4844" y2="106.4844"/></g><!--MD5=[769423b84427c558f4ffad427eb9628e]
class VoyageurRegulier--><g id="elem_VoyageurRegulier"><rect codeLine="24" fill="#F1F1F1" height="58.5938" id="VoyageurRegulier" rx="2.5" ry="2.5" style="stroke:#181818;stroke-width:0.5;" width="211" x="652.5" y="31"/><text fill="#000000" font-family="sans-serif" font-size="14" lengthAdjust="spacing" textLength="122" x="697" y="48.9951">VoyageurRegulier</text><line style="stroke:#181818;stroke-width:0.5;" x1="653.5" x2="862.5" y1="57.2969" y2="57.2969"/><text fill="#000000" font-family="sans-serif" font-size="14" lengthAdjust="spacing" textLength="199" x="658.5" y="74.292">numeroCarte : integer {key}</text><line style="stroke:#181818;stroke-width:0.5;" x1="653.5" x2="862.5" y1="81.5938" y2="81.5938"/></g><!--MD5=[d0d6d9f3b9d120ca1d89ce4c1be214ae]
class StatutCarte--><g id="elem_StatutCarte"><rect codeLine="28" fill="#F1F1F1" height="58.5938" id="StatutCarte" rx="2.5" ry="2.5" style="stroke:#181818;stroke-width:0.5;" width="156" x="1016" y="31"/><text fill="#000000" font-family="sans-serif" font-size="14" lengthAdjust="spacing" textLength="78" x="1055" y="48.9951">StatutCarte</text><line style="stroke:#181818;stroke-width:0.5;" x1="1017" x2="1171" y1="57.2969" y2="57.2969"/><text fill="#000000" font-family="sans-serif" font-size="14" lengthAdjust="spacing" textLength="144" x="1022" y="74.292">intitulé : string {key}</text><line style="stroke:#181818;stroke-width:0.5;" x1="1017" x2="1171" y1="81.5938" y2="81.5938"/></g><!--MD5=[ea193e58bf01a8bb640ee5c4ebd1a9a0]
class Transport--><g id="elem_Transport"><rect codeLine="33" fill="#F1F1F1" height="74.8906" id="Transport" rx="2.5" ry="2.5" style="stroke:#181818;stroke-width:0.5;" width="156" x="823" y="593"/><text fill="#000000" font-family="sans-serif" font-size="14" lengthAdjust="spacing" textLength="67" x="867.5" y="610.9951">Transport</text><line style="stroke:#181818;stroke-width:0.5;" x1="824" x2="978" y1="619.2969" y2="619.2969"/><text fill="#000000" font-family="sans-serif" font-size="14" lengthAdjust="spacing" textLength="144" x="829" y="636.292">type : TypeTransport</text><text fill="#000000" font-family="sans-serif" font-size="14" lengthAdjust="spacing" textLength="77" x="829" y="652.5889">ville : string</text><line style="stroke:#181818;stroke-width:0.5;" x1="824" x2="978" y1="659.8906" y2="659.8906"/></g><!--MD5=[3110dbef8258a6b966b2e55d3546d21d]
class Hotel--><g id="elem_Hotel"><rect codeLine="38" fill="#F1F1F1" height="91.1875" id="Hotel" rx="2.5" ry="2.5" style="stroke:#181818;stroke-width:0.5;" width="138" x="7" y="753"/><text fill="#000000" font-family="sans-serif" font-size="14" lengthAdjust="spacing" textLength="36" x="58" y="770.9951">Hotel</text><line style="stroke:#181818;stroke-width:0.5;" x1="8" x2="144" y1="779.2969" y2="779.2969"/><text fill="#000000" font-family="sans-serif" font-size="14" lengthAdjust="spacing" textLength="83" x="13" y="796.292">nom : string</text><text fill="#000000" font-family="sans-serif" font-size="14" lengthAdjust="spacing" textLength="126" x="13" y="812.5889">adresse : Adresse</text><text fill="#000000" font-family="sans-serif" font-size="14" lengthAdjust="spacing" textLength="77" x="13" y="828.8857">ville : string</text><line style="stroke:#181818;stroke-width:0.5;" x1="8" x2="144" y1="836.1875" y2="836.1875"/></g><!--MD5=[dd6f0fbd4f45e5ee36d89a4344f439d9]
class Gare--><g id="elem_Gare"><rect codeLine="45" fill="#F1F1F1" height="107.4844" id="Gare" rx="2.5" ry="2.5" style="stroke:#181818;stroke-width:0.5;" width="262" x="349" y="745"/><text fill="#000000" font-family="sans-serif" font-size="14" lengthAdjust="spacing" textLength="33" x="463.5" y="762.9951">Gare</text><line style="stroke:#181818;stroke-width:0.5;" x1="350" x2="610" y1="771.2969" y2="771.2969"/><text fill="#000000" font-family="sans-serif" font-size="14" lengthAdjust="spacing" textLength="83" x="355" y="788.292">nom : string</text><text fill="#000000" font-family="sans-serif" font-size="14" lengthAdjust="spacing" textLength="77" x="355" y="804.5889">ville : string</text><text fill="#000000" font-family="sans-serif" font-size="14" lengthAdjust="spacing" textLength="126" x="355" y="820.8857">adresse : Adresse</text><text fill="#000000" font-family="sans-serif" font-size="14" lengthAdjust="spacing" textLength="250" x="355" y="837.1826">zonehoraire : smallint {∈ ⟦-12; 12⟧}</text><line style="stroke:#181818;stroke-width:0.5;" x1="350" x2="610" y1="844.4844" y2="844.4844"/></g><!--MD5=[c4d7de58b6b74e0d187415ecc51ab732]
class Ligne--><g id="elem_Ligne"><rect codeLine="52" fill="#F1F1F1" height="58.5938" id="Ligne" rx="2.5" ry="2.5" style="stroke:#181818;stroke-width:0.5;" width="174" x="1333" y="465"/><text fill="#000000" font-family="sans-serif" font-size="14" lengthAdjust="spacing" textLength="37" x="1401.5" y="482.9951">Ligne</text><line style="stroke:#181818;stroke-width:0.5;" x1="1334" x2="1506" y1="491.2969" y2="491.2969"/><text fill="#000000" font-family="sans-serif" font-size="14" lengthAdjust="spacing" textLength="162" x="1339" y="508.292">numero : integer {key}</text><line style="stroke:#181818;stroke-width:0.5;" x1="1334" x2="1506" y1="515.5938" y2="515.5938"/></g><!--MD5=[1b851f8443963f4c05b7f43cd561e329]
class LigneDessert--><g id="elem_LigneDessert"><rect codeLine="56" fill="#F1F1F1" height="58.5938" id="LigneDessert" rx="2.5" ry="2.5" style="stroke:#181818;stroke-width:0.5;" width="170" x="618" y="601"/><text fill="#000000" font-family="sans-serif" font-size="14" lengthAdjust="spacing" textLength="92" x="657" y="618.9951">LigneDessert</text><line style="stroke:#181818;stroke-width:0.5;" x1="619" x2="787" y1="627.2969" y2="627.2969"/><text fill="#000000" font-family="sans-serif" font-size="14" lengthAdjust="spacing" textLength="158" x="624" y="644.292">ordre : integer {&gt;= 0}</text><line style="stroke:#181818;stroke-width:0.5;" x1="619" x2="787" y1="651.5938" y2="651.5938"/></g><!--MD5=[2b591347219e2d308bdf301555c4d62b]
class Voyage--><g id="elem_Voyage"><rect codeLine="60" fill="#F1F1F1" height="58.5938" id="Voyage" rx="2.5" ry="2.5" style="stroke:#181818;stroke-width:0.5;" width="147" x="1044.5" y="256"/><text fill="#000000" font-family="sans-serif" font-size="14" lengthAdjust="spacing" textLength="51" x="1092.5" y="273.9951">Voyage</text><line style="stroke:#181818;stroke-width:0.5;" x1="1045.5" x2="1190.5" y1="282.2969" y2="282.2969"/><text fill="#000000" font-family="sans-serif" font-size="14" lengthAdjust="spacing" textLength="135" x="1050.5" y="299.292">heureDepart : Time</text><line style="stroke:#181818;stroke-width:0.5;" x1="1045.5" x2="1190.5" y1="306.5938" y2="306.5938"/></g><!--MD5=[cf01e16a3306166fc0401e59043eba98]
class Plannification--><g id="elem_Plannification"><rect codeLine="64" fill="#F1F1F1" height="188.9688" id="Plannification" rx="2.5" ry="2.5" style="stroke:#181818;stroke-width:0.5;" width="136" x="299" y="191"/><text fill="#000000" font-family="sans-serif" font-size="14" lengthAdjust="spacing" textLength="90" x="322" y="208.9951">Plannification</text><line style="stroke:#181818;stroke-width:0.5;" x1="300" x2="434" y1="217.2969" y2="217.2969"/><text fill="#000000" font-family="sans-serif" font-size="14" lengthAdjust="spacing" textLength="124" x="305" y="234.292">dateDepart : Date</text><text fill="#000000" font-family="sans-serif" font-size="14" lengthAdjust="spacing" textLength="97" x="305" y="250.5889">dateFin : Date</text><text fill="#000000" font-family="sans-serif" font-size="14" lengthAdjust="spacing" textLength="76" x="305" y="266.8857">lundi : bool</text><text fill="#000000" font-family="sans-serif" font-size="14" lengthAdjust="spacing" textLength="81" x="305" y="283.1826">mardi : bool</text><text fill="#000000" font-family="sans-serif" font-size="14" lengthAdjust="spacing" textLength="104" x="305" y="299.4795">mercredi : bool</text><text fill="#000000" font-family="sans-serif" font-size="14" lengthAdjust="spacing" textLength="76" x="305" y="315.7764">jeudi : bool</text><text fill="#000000" font-family="sans-serif" font-size="14" lengthAdjust="spacing" textLength="103" x="305" y="332.0732">vendredi : bool</text><text fill="#000000" font-family="sans-serif" font-size="14" lengthAdjust="spacing" textLength="93" x="305" y="348.3701">samedi : bool</text><text fill="#000000" font-family="sans-serif" font-size="14" lengthAdjust="spacing" textLength="111" x="305" y="364.667">dimanche : bool</text><line style="stroke:#181818;stroke-width:0.5;" x1="300" x2="434" y1="371.9688" y2="371.9688"/></g><!--MD5=[cdf1c16f361a4d58abb19711c9bdfb91]
class JourException--><g id="elem_JourException"><rect codeLine="76" fill="#F1F1F1" height="74.8906" id="JourException" rx="2.5" ry="2.5" style="stroke:#181818;stroke-width:0.5;" width="130" x="62" y="248"/><text fill="#000000" font-family="sans-serif" font-size="14" lengthAdjust="spacing" textLength="94" x="80" y="265.9951">JourException</text><line style="stroke:#181818;stroke-width:0.5;" x1="63" x2="191" y1="274.2969" y2="274.2969"/><text fill="#000000" font-family="sans-serif" font-size="14" lengthAdjust="spacing" textLength="118" x="68" y="291.292">jour : Date {key}</text><text fill="#000000" font-family="sans-serif" font-size="14" lengthAdjust="spacing" textLength="77" x="68" y="307.5889">ajout : bool</text><line style="stroke:#181818;stroke-width:0.5;" x1="63" x2="191" y1="314.8906" y2="314.8906"/></g><!--MD5=[e3e82e52c8be264d7330cb7d2eaa7151]
class VoyageDessert--><g id="elem_VoyageDessert"><rect codeLine="81" fill="#F1F1F1" height="74.8906" id="VoyageDessert" rx="2.5" ry="2.5" style="stroke:#181818;stroke-width:0.5;" width="147" x="308.5" y="457"/><text fill="#000000" font-family="sans-serif" font-size="14" lengthAdjust="spacing" textLength="106" x="329" y="474.9951">VoyageDessert</text><line style="stroke:#181818;stroke-width:0.5;" x1="309.5" x2="454.5" y1="483.2969" y2="483.2969"/><text fill="#000000" font-family="sans-serif" font-size="14" lengthAdjust="spacing" textLength="135" x="314.5" y="500.292">heureDepart : Time</text><text fill="#000000" font-family="sans-serif" font-size="14" lengthAdjust="spacing" textLength="135" x="314.5" y="516.5889">heureArrivee : Time</text><line style="stroke:#181818;stroke-width:0.5;" x1="309.5" x2="454.5" y1="523.8906" y2="523.8906"/></g><!--MD5=[5d57f717c5d5963ea0d5127ec122f9f6]
class Trajet--><g id="elem_Trajet"><rect codeLine="86" fill="#F1F1F1" height="91.1875" id="Trajet" rx="2.5" ry="2.5" style="stroke:#181818;stroke-width:0.5;" width="289" x="639.5" y="240"/><text fill="#000000" font-family="sans-serif" font-size="14" lengthAdjust="spacing" textLength="39" x="764.5" y="257.9951">Trajet</text><line style="stroke:#181818;stroke-width:0.5;" x1="640.5" x2="927.5" y1="266.2969" y2="266.2969"/><text fill="#000000" font-family="sans-serif" font-size="14" lengthAdjust="spacing" textLength="277" x="645.5" y="283.292">numeroTrajet : integer {local key, &gt;=0}</text><text fill="#000000" font-family="sans-serif" font-size="14" lengthAdjust="spacing" textLength="212" x="645.5" y="299.5889">numeroPlace : integer {&gt;= 0}</text><line style="stroke:#181818;stroke-width:0.5;" x1="640.5" x2="927.5" y1="306.8906" y2="306.8906"/><text fill="#000000" font-family="sans-serif" font-size="14" lengthAdjust="spacing" textLength="76" x="645.5" y="323.8857">prix() : float</text></g><!--MD5=[2f53d364b4e3b7d802afc29f72dce69f]
class Billet--><g id="elem_Billet"><rect codeLine="93" fill="#F1F1F1" height="58.5938" id="Billet" rx="2.5" ry="2.5" style="stroke:#181818;stroke-width:0.5;" width="127" x="477.5" y="256"/><text fill="#000000" font-family="sans-serif" font-size="14" lengthAdjust="spacing" textLength="33" x="524.5" y="273.9951">Billet</text><line style="stroke:#181818;stroke-width:0.5;" x1="478.5" x2="603.5" y1="282.2969" y2="282.2969"/><text fill="#000000" font-family="sans-serif" font-size="14" lengthAdjust="spacing" textLength="115" x="483.5" y="299.292">assurance : bool</text><line style="stroke:#181818;stroke-width:0.5;" x1="478.5" x2="603.5" y1="306.5938" y2="306.5938"/></g><!--MD5=[baa9984992e9f8642779104e82881e55]
class TypePaiement--><g id="elem_TypePaiement"><rect codeLine="97" fill="#F1F1F1" height="58.5938" id="TypePaiement" rx="2.5" ry="2.5" style="stroke:#181818;stroke-width:0.5;" width="156" x="491" y="465"/><text fill="#000000" font-family="sans-serif" font-size="14" lengthAdjust="spacing" textLength="99" x="519.5" y="482.9951">TypePaiement</text><line style="stroke:#181818;stroke-width:0.5;" x1="492" x2="646" y1="491.2969" y2="491.2969"/><text fill="#000000" font-family="sans-serif" font-size="14" lengthAdjust="spacing" textLength="144" x="497" y="508.292">intitulé : string {key}</text><line style="stroke:#181818;stroke-width:0.5;" x1="492" x2="646" y1="515.5938" y2="515.5938"/></g><!--MD5=[cbf682cb6c5baf3a24cd44b737805cda]
class TypeTransport--><g id="elem_TypeTransport"><rect codeLine="104" fill="#F1F1F1" height="88.8594" id="TypeTransport" rx="2.5" ry="2.5" style="stroke:#181818;stroke-width:0.5;" width="107" x="1207.5" y="16"/><text fill="#000000" font-family="sans-serif" font-size="12" font-style="italic" lengthAdjust="spacing" textLength="94" x="1214" y="32.1387">«enumeration»</text><text fill="#000000" font-family="sans-serif" font-size="14" lengthAdjust="spacing" textLength="101" x="1210.5" y="47.9639">TypeTransport</text><line style="stroke:#181818;stroke-width:0.5;" x1="1208.5" x2="1313.5" y1="56.2656" y2="56.2656"/><text fill="#000000" font-family="sans-serif" font-size="14" lengthAdjust="spacing" textLength="27" x="1213.5" y="73.2607">Bus</text><text fill="#000000" font-family="sans-serif" font-size="14" lengthAdjust="spacing" textLength="27" x="1213.5" y="89.5576">Taxi</text><line style="stroke:#181818;stroke-width:0.5;" x1="1208.5" x2="1313.5" y1="96.8594" y2="96.8594"/></g><!--MD5=[70c811998a0d7544d2536fae1accd5d3]
class Adresse--><g id="elem_Adresse"><rect codeLine="111" fill="#F1F1F1" height="105.1563" id="Adresse" rx="2.5" ry="2.5" style="stroke:#181818;stroke-width:0.5;" width="160" x="1350" y="8"/><text fill="#000000" font-family="sans-serif" font-size="12" font-style="italic" lengthAdjust="spacing" textLength="73" x="1393.5" y="24.1387">«dataType»</text><text fill="#000000" font-family="sans-serif" font-size="14" lengthAdjust="spacing" textLength="57" x="1401.5" y="39.9639">Adresse</text><line style="stroke:#181818;stroke-width:0.5;" x1="1351" x2="1509" y1="48.2656" y2="48.2656"/><text fill="#000000" font-family="sans-serif" font-size="14" lengthAdjust="spacing" textLength="146" x="1356" y="65.2607">numeroVoie : Integer</text><text fill="#000000" font-family="sans-serif" font-size="14" lengthAdjust="spacing" textLength="111" x="1356" y="81.5576">nomRue : string</text><text fill="#000000" font-family="sans-serif" font-size="14" lengthAdjust="spacing" textLength="148" x="1356" y="97.8545">codePostal : string[5]</text><line style="stroke:#181818;stroke-width:0.5;" x1="1351" x2="1509" y1="105.1563" y2="105.1563"/></g><ellipse cx="581" cy="630.5" fill="#000000" rx="2" ry="2" style="stroke:none;stroke-width:1.0;"/><ellipse cx="271" cy="494.5" fill="#000000" rx="2" ry="2" style="stroke:none;stroke-width:1.0;"/><g id="elem_N2"><path d="M1230,618 L1230,643.1328 A0,0 0 0 0 1230,643.1328 L1610,643.1328 A0,0 0 0 0 1610,643.1328 L1610,628 L1600,618 L1424,618 L1420,524.25 L1416,618 L1230,618 A0,0 0 0 0 1230,618 " fill="#FEFFDD" style="stroke:#181818;stroke-width:0.5;"/><path d="M1600,618 L1600,628 L1610,628 L1600,618 " fill="#FEFFDD" style="stroke:#181818;stroke-width:0.5;"/><text fill="#000000" font-family="sans-serif" font-size="13" lengthAdjust="spacing" textLength="359" x="1236" y="635.0669">Sur une ligne ne peut circuler qu'un certain type de train</text></g><g id="elem_N3"><path d="M413,913 L413,938.1328 A0,0 0 0 0 413,938.1328 L547,938.1328 A0,0 0 0 0 547,938.1328 L547,923 L537,913 L484,913 L480,852.15 L476,913 L413,913 A0,0 0 0 0 413,913 " fill="#FEFFDD" style="stroke:#181818;stroke-width:0.5;"/><path d="M537,913 L537,923 L547,923 L537,913 " fill="#FEFFDD" style="stroke:#181818;stroke-width:0.5;"/><text fill="#000000" font-family="sans-serif" font-size="13" lengthAdjust="spacing" textLength="113" x="419" y="930.0669">{(nom, ville) key}</text></g><g id="elem_N4"><path d="M324.5,618 L324.5,643.1328 A0,0 0 0 0 324.5,643.1328 L543.5,643.1328 A0,0 0 0 0 543.5,643.1328 L543.5,628 L533.5,618 L433.46,618 L396.21,532.12 L425.46,618 L324.5,618 A0,0 0 0 0 324.5,618 " fill="#FEFFDD" style="stroke:#181818;stroke-width:0.5;"/><path d="M533.5,618 L533.5,628 L543.5,628 L533.5,618 " fill="#FEFFDD" style="stroke:#181818;stroke-width:0.5;"/><text fill="#000000" font-family="sans-serif" font-size="13" lengthAdjust="spacing" textLength="198" x="330.5" y="635.0669">{heureArrivee &lt; heureDepart}</text></g><g id="elem_N5"><path d="M682,482 L682,507.1328 A0,0 0 0 0 682,507.1328 L1298,507.1328 A0,0 0 0 0 1298,507.1328 L1298,492 L1288,482 L982.27,482 L828.45,331.16 L974.27,482 L682,482 A0,0 0 0 0 682,482 " fill="#FEFFDD" style="stroke:#181818;stroke-width:0.5;"/><path d="M1288,482 L1288,492 L1298,492 L1288,482 " fill="#FEFFDD" style="stroke:#181818;stroke-width:0.5;"/><text fill="#000000" font-family="sans-serif" font-size="13" lengthAdjust="spacing" textLength="595" x="688" y="499.0669">Pour un voyage donné, on ne peut pas avoir deux trajets à la même place aux mêmes arrêts</text></g><g id="elem_N8"><path d="M180,786 L180,794.5 L145.13,798.5 L180,802.5 L180,811.1328 A0,0 0 0 0 180,811.1328 L314,811.1328 A0,0 0 0 0 314,811.1328 L314,796 L304,786 L180,786 A0,0 0 0 0 180,786 " fill="#FEFFDD" style="stroke:#181818;stroke-width:0.5;"/><path d="M304,786 L304,796 L314,796 L304,786 " fill="#FEFFDD" style="stroke:#181818;stroke-width:0.5;"/><text fill="#000000" font-family="sans-serif" font-size="13" lengthAdjust="spacing" textLength="113" x="186" y="803.0669">{(nom, ville) key}</text></g><g id="elem_N9"><path d="M58,482 L58,507.1328 A0,0 0 0 0 58,507.1328 L234,507.1328 A0,0 0 0 0 234,507.1328 L234,492 L224,482 L162.66,482 L298.89,350.3 L154.66,482 L58,482 A0,0 0 0 0 58,482 " fill="#FEFFDD" style="stroke:#181818;stroke-width:0.5;"/><path d="M224,482 L224,492 L234,492 L224,482 " fill="#FEFFDD" style="stroke:#181818;stroke-width:0.5;"/><text fill="#000000" font-family="sans-serif" font-size="13" lengthAdjust="spacing" textLength="155" x="64" y="499.0669">{dateDepart &lt; dateFin}</text></g><!--MD5=[eb160190a4659c6f28f5b1a5fd554492]
link Transport to Gare--><g id="link_Transport_Gare"><path codeLine="119" d="M822.8,662.33 C763.47,685.73 680.56,718.42 611.14,745.79 " fill="none" id="Transport-Gare" style="stroke:#181818;stroke-width:1.0;"/><polygon fill="#000000" points="729.3485,708.4005,738.8412,707.8166,736.685,702.3485,729.3485,708.4005" style="stroke:#000000;stroke-width:1.0;"/><text fill="#000000" font-family="sans-serif" font-size="13" lengthAdjust="spacing" textLength="58" x="743" y="711.0669">desservir</text><text fill="#000000" font-family="sans-serif" font-size="13" lengthAdjust="spacing" textLength="23" x="796.0208" y="662.5412">0..*</text><text fill="#000000" font-family="sans-serif" font-size="13" lengthAdjust="spacing" textLength="23" x="618.9406" y="739.5545">1..*</text></g><!--MD5=[f7a9a44cfb7f51e7ca6abc4dd90e94cd]
link Hotel to Gare--><g id="link_Hotel_Gare"><path codeLine="121" d="M100.91,752.92 C112.02,737.28 126.67,721.56 144.5,713 C185.77,693.18 202.43,704.98 247.5,713 C284.76,719.63 323.88,731.81 359.17,744.93 " fill="none" id="Hotel-Gare" style="stroke:#181818;stroke-width:1.0;"/><polygon fill="#000000" points="154.4976,706.4118,145.366,703.754,145.5477,709.629,154.4976,706.4118" style="stroke:#000000;stroke-width:1.0;"/><text fill="#000000" font-family="sans-serif" font-size="13" lengthAdjust="spacing" textLength="88" x="158.5" y="711.0669">est proche de</text><text fill="#000000" font-family="sans-serif" font-size="13" lengthAdjust="spacing" textLength="23" x="79.9634" y="741.8548">0..*</text><text fill="#000000" font-family="sans-serif" font-size="13" lengthAdjust="spacing" textLength="23" x="318.3882" y="733.767">1..*</text></g><!--MD5=[77104d82a9b955aed19097f8ffd1ac14]
reverse link Voyageur to VoyageurRegulier--><g id="link_Voyageur_VoyageurRegulier"><path codeLine="124" d="M637.37,60.5 C642.41,60.5 647.45,60.5 652.49,60.5 " fill="none" id="Voyageur-backto-VoyageurRegulier" style="stroke:#181818;stroke-width:1.0;"/><polygon fill="none" points="637.32,67.5,617.32,60.5,637.32,53.5,637.32,67.5" style="stroke:#181818;stroke-width:1.0;"/></g><!--MD5=[db40987b230ea6b165d6fe89d20d2591]
link VoyageurRegulier to StatutCarte--><g id="link_VoyageurRegulier_StatutCarte"><path codeLine="126" d="M863.85,60.5 C913.1,60.5 970.63,60.5 1015.86,60.5 " fill="none" id="VoyageurRegulier-StatutCarte" style="stroke:#181818;stroke-width:1.0;"/><polygon fill="#000000" points="890.75,49.0664,881.7049,46.1275,881.7049,52.0053,890.75,49.0664" style="stroke:#000000;stroke-width:1.0;"/><text fill="#000000" font-family="sans-serif" font-size="13" lengthAdjust="spacing" textLength="103" x="894.75" y="53.5669">a comme statut</text><text fill="#000000" font-family="sans-serif" font-size="13" lengthAdjust="spacing" textLength="23" x="871.3677" y="73.0646">0..*</text><text fill="#000000" font-family="sans-serif" font-size="13" lengthAdjust="spacing" textLength="8" x="1000.031" y="56.8777">1</text></g><!--MD5=[ebfe4f506484d4263f60bc9d8a1ece8d]
link Train to TypeTrain--><g id="link_Train_TypeTrain"><path codeLine="129" d="M1483.19,285.5 C1520.72,285.5 1564.92,285.5 1604.22,285.5 " fill="none" id="Train-TypeTrain" style="stroke:#181818;stroke-width:1.0;"/><polygon fill="#000000" points="1510.25,274.0664,1501.2049,271.1275,1501.2049,277.0053,1510.25,274.0664" style="stroke:#000000;stroke-width:1.0;"/><text fill="#000000" font-family="sans-serif" font-size="13" lengthAdjust="spacing" textLength="72" x="1514.25" y="278.5669">est de type</text><text fill="#000000" font-family="sans-serif" font-size="13" lengthAdjust="spacing" textLength="23" x="1491.0544" y="298.186">1..*</text><text fill="#000000" font-family="sans-serif" font-size="13" lengthAdjust="spacing" textLength="8" x="1588.5714" y="282.0519">1</text></g><!--MD5=[84fdd08486f5b806aee016a36efdd152]
link Ligne to apoint27--><g id="link_Ligne_apoint27"><path d="M1345.95,524.03 C1335.99,527.12 1325.82,529.89 1316,532 C1159.86,565.49 732.88,504.43 600,593 C586.68,601.88 582.12,623.16 581.19,628.35 " fill="none" id="Ligne-apoint27" style="stroke:#181818;stroke-width:1.0;"/><text fill="#000000" font-family="sans-serif" font-size="13" lengthAdjust="spacing" textLength="23" x="1305.3053" y="543.7899">1..*</text></g><!--MD5=[c5a5693a196c883f7f5f1309efbf7ef1]
link apoint27 to Gare--><g id="link_apoint27_Gare"><path d="M580.4,632.65 C578.03,637.19 569.04,654.29 561,668 C545.98,693.62 528.6,721.61 513.8,745 " fill="none" id="apoint27-Gare" style="stroke:#181818;stroke-width:1.0;"/><text fill="#000000" font-family="sans-serif" font-size="13" lengthAdjust="spacing" textLength="23" x="493.7966" y="733.8464">2..*</text></g><!--MD5=[c4b00628750cb58592dd3e3782b4e506]
link apoint27 to LigneDessert--><g id="link_apoint27_LigneDessert"><path d="M583.38,630.5 C594.91,630.5 606.43,630.5 617.96,630.5 " fill="none" id="apoint27-LigneDessert" style="stroke:#181818;stroke-width:1.0;stroke-dasharray:7.0,7.0;"/></g><!--MD5=[fbba489d159a1ca7ee22e33b427c2205]
link TypeTrain to Ligne--><g id="link_TypeTrain_Ligne"><path codeLine="135" d="M1623.46,347.77 C1569.37,386.51 1501.97,434.79 1459.95,464.89 " fill="none" id="TypeTrain-Ligne" style="stroke:#181818;stroke-width:1.0;"/><polygon fill="#000000" points="1530.9352,421.478,1539.9999,418.6001,1536.5771,413.8217,1530.9352,421.478" style="stroke:#000000;stroke-width:1.0;"/><text fill="#000000" font-family="sans-serif" font-size="13" lengthAdjust="spacing" textLength="79" x="1544" y="423.0669">peut circuler</text><text fill="#000000" font-family="sans-serif" font-size="13" lengthAdjust="spacing" textLength="8" x="1605.6666" y="367.4872">1</text><text fill="#000000" font-family="sans-serif" font-size="13" lengthAdjust="spacing" textLength="23" x="1443.1734" y="453.898">1..*</text></g><!--MD5=[1ce977dd6453d9ac909609cc4dbe0105]
link Voyage to apoint34--><g id="link_Voyage_apoint34"><path d="M1075.76,315.02 C1042.08,336.35 992.94,364.43 946,380 C806.64,426.23 764.82,409.86 619,427 C546.31,435.54 352.21,416.87 291,457 C277.46,465.88 272.3,487.16 271.22,492.35 " fill="none" id="Voyage-apoint34" style="stroke:#181818;stroke-width:1.0;"/><text fill="#000000" font-family="sans-serif" font-size="13" lengthAdjust="spacing" textLength="23" x="1041.6761" y="334.7779">0..*</text></g><!--MD5=[d51467c829b9a133bbec8b127bd4c86f]
link apoint34 to Gare--><g id="link_apoint34_Gare"><path d="M270.94,496.71 C270.43,508.65 267.57,606.07 307,668 C326.44,698.54 355.81,724.46 384.86,744.9 " fill="none" id="apoint34-Gare" style="stroke:#181818;stroke-width:1.0;"/><text fill="#000000" font-family="sans-serif" font-size="13" lengthAdjust="spacing" textLength="23" x="348.1968" y="734.1159">2..*</text></g><!--MD5=[db65698ec31852be5ae17aa4758c3b1c]
link apoint34 to VoyageDessert--><g id="link_apoint34_VoyageDessert"><path d="M273.17,494.5 C284.93,494.5 296.69,494.5 308.45,494.5 " fill="none" id="apoint34-VoyageDessert" style="stroke:#181818;stroke-width:1.0;stroke-dasharray:7.0,7.0;"/></g><!--MD5=[78444d35b2b96caea38500effcf21dc1]
link Voyage to Ligne--><g id="link_Voyage_Ligne"><path codeLine="141" d="M1159.67,315.07 C1217.28,354.55 1320.63,425.39 1378.27,464.9 " fill="none" id="Voyage-Ligne" style="stroke:#181818;stroke-width:1.0;"/><polygon fill="#000000" points="1331.1242,421.3932,1325.325,413.8553,1322.0019,418.7037,1331.1242,421.3932" style="stroke:#000000;stroke-width:1.0;"/><text fill="#000000" font-family="sans-serif" font-size="13" lengthAdjust="spacing" textLength="124" x="1336" y="423.0669">est programmé sur</text><text fill="#000000" font-family="sans-serif" font-size="13" lengthAdjust="spacing" textLength="23" x="1142.8926" y="334.8382">1..*</text><text fill="#000000" font-family="sans-serif" font-size="13" lengthAdjust="spacing" textLength="8" x="1360.2666" y="453.9102">1</text></g><!--MD5=[dbb29503f0bc14d96fd0da18e4a983ab]
link Plannification to Voyage--><g id="link_Plannification_Voyage"><path codeLine="143" d="M406.67,190.97 C414.48,181.05 423.7,172.31 434.5,166 C462.52,149.65 475.07,165.08 507.5,166 C702.63,171.56 758.38,137.12 946,191 C993.98,204.78 1043.37,233.73 1076.85,255.98 " fill="none" id="Plannification-Voyage" style="stroke:#181818;stroke-width:1.0;"/><polygon fill="#000000" points="444.4766,153.0492,435.7576,149.2507,435.1901,155.101,444.4766,153.0492" style="stroke:#000000;stroke-width:1.0;"/><text fill="#000000" font-family="sans-serif" font-size="13" lengthAdjust="spacing" textLength="58" x="448.5" y="157.0669">plannifier</text><text fill="#000000" font-family="sans-serif" font-size="13" lengthAdjust="spacing" textLength="23" x="385.9148" y="179.9129">0..*</text><text fill="#000000" font-family="sans-serif" font-size="13" lengthAdjust="spacing" textLength="23" x="1042.3328" y="245.0077">0..*</text></g><!--MD5=[cd28fbf3f358f1f8fde1139cdeaa622e]
link JourException to Plannification--><g id="link_JourException_Plannification"><path codeLine="145" d="M192.26,285.5 C225.3,285.5 265.38,285.5 298.82,285.5 " fill="none" id="JourException-Plannification" style="stroke:#181818;stroke-width:1.0;"/><polygon fill="#000000" points="219.5,274.0664,210.4549,271.1275,210.4549,277.0053,219.5,274.0664" style="stroke:#000000;stroke-width:1.0;"/><text fill="#000000" font-family="sans-serif" font-size="13" lengthAdjust="spacing" textLength="57" x="223.5" y="278.5669">impacter</text><text fill="#000000" font-family="sans-serif" font-size="13" lengthAdjust="spacing" textLength="23" x="200.1759" y="298.3528">0..*</text><text fill="#000000" font-family="sans-serif" font-size="13" lengthAdjust="spacing" textLength="23" x="267.9765" y="298.3133">0..*</text></g><!--MD5=[74e58aeeeba35d7192febcf5cc1529c3]
link Voyage to Train--><g id="link_Voyage_Train"><path codeLine="147" d="M1191.77,285.5 C1227.72,285.5 1271.2,285.5 1308.79,285.5 " fill="none" id="Voyage-Train" style="stroke:#181818;stroke-width:1.0;"/><polygon fill="#000000" points="1218.75,274.0664,1209.7049,271.1275,1209.7049,277.0053,1218.75,274.0664" style="stroke:#000000;stroke-width:1.0;"/><text fill="#000000" font-family="sans-serif" font-size="13" lengthAdjust="spacing" textLength="68" x="1222.75" y="278.5669">assuré par</text><text fill="#000000" font-family="sans-serif" font-size="13" lengthAdjust="spacing" textLength="23" x="1199.6308" y="298.2831">0..*</text><text fill="#000000" font-family="sans-serif" font-size="13" lengthAdjust="spacing" textLength="8" x="1292.9516" y="281.9455">1</text></g><!--MD5=[9ea39919e0dcb6863049f26346c880de]
link Trajet to Voyage--><g id="link_Trajet_Voyage"><path codeLine="149" d="M928.55,285.5 C968.58,285.5 1010.35,285.5 1044.45,285.5 " fill="none" id="Trajet-Voyage" style="stroke:#181818;stroke-width:1.0;"/><polygon fill="#000000" points="956,274.0664,946.9549,271.1275,946.9549,277.0053,956,274.0664" style="stroke:#000000;stroke-width:1.0;"/><text fill="#000000" font-family="sans-serif" font-size="13" lengthAdjust="spacing" textLength="66" x="960" y="278.5669">appartenir</text><text fill="#000000" font-family="sans-serif" font-size="13" lengthAdjust="spacing" textLength="23" x="936.5963" y="297.9522">0..*</text><text fill="#000000" font-family="sans-serif" font-size="13" lengthAdjust="spacing" textLength="8" x="1028.4527" y="281.8213">1</text></g><!--MD5=[c1164ec98c08fbe40301f559a6d026ea]
reverse link Billet to Trajet--><g id="link_Billet_Trajet"><path codeLine="152" d="M617.61,285.5 C624.83,285.5 632.06,285.5 639.29,285.5 " fill="none" id="Billet-backto-Trajet" style="stroke:#181818;stroke-width:1.0;"/><polygon fill="#181818" points="604.6,285.5,610.6,289.5,616.6,285.5,610.6,281.5,604.6,285.5" style="stroke:#181818;stroke-width:1.0;"/><text fill="#000000" font-family="sans-serif" font-size="13" lengthAdjust="spacing" textLength="23" x="612.561" y="281.8344">1..*</text></g><!--MD5=[f1b5e5ea9c335262b19a95543e842897]
link Voyageur to Billet--><g id="link_Voyageur_Billet"><path codeLine="154" d="M546.35,114.07 C544.96,158.36 543.02,220.07 541.9,255.8 " fill="none" id="Voyageur-Billet" style="stroke:#181818;stroke-width:1.0;"/><polygon fill="#000000" points="550.8431,157.5639,554.0644,148.6155,548.1895,148.4311,550.8431,157.5639" style="stroke:#000000;stroke-width:1.0;"/><text fill="#000000" font-family="sans-serif" font-size="13" lengthAdjust="spacing" textLength="53" x="560" y="157.0669">reserver</text><text fill="#000000" font-family="sans-serif" font-size="13" lengthAdjust="spacing" textLength="8" x="537.5555" y="134.7001">1</text><text fill="#000000" font-family="sans-serif" font-size="13" lengthAdjust="spacing" textLength="23" x="516.5813" y="244.7884">1..*</text></g><!--MD5=[6ac24bdda190e27015508baeff5512d7]
link Billet to TypePaiement--><g id="link_Billet_TypePaiement"><path codeLine="156" d="M544.89,315.28 C550.24,354.83 559.81,425.54 565.14,464.96 " fill="none" id="Billet-TypePaiement" style="stroke:#181818;stroke-width:1.0;"/><polygon fill="#000000" points="565.6703,423.5213,567.3701,414.1638,561.5453,414.9519,565.6703,423.5213" style="stroke:#000000;stroke-width:1.0;"/><text fill="#000000" font-family="sans-serif" font-size="13" lengthAdjust="spacing" textLength="36" x="574" y="423.0669">payer</text><text fill="#000000" font-family="sans-serif" font-size="13" lengthAdjust="spacing" textLength="23" x="520.3918" y="334.7395">0..*</text><text fill="#000000" font-family="sans-serif" font-size="13" lengthAdjust="spacing" textLength="8" x="555.4206" y="453.9834">1</text></g><!--MD5=[69b848e92ec65e1daf298e66c81dfb1d]
@startuml

' Classes

class TypeTrain {
	nom : string {key}
	nbPlace : integer {>= 0}
	vitesseMax : Integer {>= 0}
	aPremiereClasse : bool
	coutHeure : float {>0}
}

class Train {
	numero : integer {key}
}


class Voyageur {
	nom : string
	prenom : string
	adresse : Adresse
	tel : string {key}
}

class VoyageurRegulier {
	numeroCarte : integer {key}
}

class StatutCarte {
	intitulé : string {key}
}


class Transport {
	type : TypeTransport
	ville : string
}

class Hotel {
	nom : string
	adresse : Adresse
	ville : string
}


class Gare {
	nom : string
	ville : string
	adresse : Adresse
	zonehoraire : smallint {∈ ⟦-12; 12⟧}
}

class Ligne {
	numero : integer {key}
}

class LigneDessert {
	ordre : integer {>= 0}
}

class Voyage {
	heureDepart : Time
}

class Plannification {
	dateDepart : Date
	dateFin : Date
	lundi : bool
	mardi : bool
	mercredi : bool
	jeudi : bool
	vendredi : bool
	samedi : bool
	dimanche : bool
}

class JourException {
	jour : Date {key}
	ajout : bool
}

class VoyageDessert {
	heureDepart : Time
	heureArrivee : Time
}

class Trajet {
	numeroTrajet : integer {local key, >=0}
	numeroPlace : integer {>= 0}
	prix() : float
}


class Billet {
	assurance : bool
}

class TypePaiement {
	intitulé : string {key}
}


' Enumerations

class TypeTransport <<enumeration>> {
	Bus
	Taxi
}

' DataTypes

class Adresse <<dataType>> {
	numeroVoie : Integer
	nomRue : string
	codePostal : string[5]
}

' Associations

Transport "0..*" - - "1..*" Gare : desservir >

Hotel "0..*" - "1..*" Gare : est proche de >


Voyageur <|- VoyageurRegulier

VoyageurRegulier "0..*" - "1" StatutCarte : a comme statut >


Train "1..*" - "1" TypeTrain : est de type >


Ligne "1..*" - - "2..*" Gare
(Ligne, Gare) . LigneDessert

TypeTrain "1" - - "1..*" Ligne : peut circuler >


Voyage "0..*" - - "2..*" Gare
(Voyage, Gare) . VoyageDessert

Voyage "1..*" - "1" Ligne : est programmé sur >

Plannification "0..*" - "0..*" Voyage : plannifier >

JourException "0..*" - "0..*" Plannification : impacter >

Voyage "0..*" - "1" Train : assuré par >

Trajet "0..*" - "1" Voyage : appartenir >


Billet *- "1..*" Trajet

Voyageur "1" - - "1..*" Billet : reserver >

Billet "0..*" - - "1" TypePaiement : payer >


' Notes

note "Sur une ligne ne peut circuler qu'un certain type de train" as N2
Ligne .. N2

note "{(nom, ville) key}" as N3
Gare .. N3

note "{heureArrivee < heureDepart}" as N4
VoyageDessert .. N4

note "Pour un voyage donné, on ne peut pas avoir deux trajets à la même place aux mêmes arrêts" as N5
Trajet .. N5

note "{(nom, ville) key}" as N8
Hotel . N8

note "{dateDepart < dateFin}" as N9
Plannification .. N9

' note "Sur une même ligne, on ne peut pas avoir deux gares desservies dans le même ordre" as N7
' LigneDessert .. N7

' Config

hide class circle

@enduml

@startuml


class TypeTrain {
	nom : string {key}
	nbPlace : integer {>= 0}
	vitesseMax : Integer {>= 0}
	aPremiereClasse : bool
	coutHeure : float {>0}
}

class Train {
	numero : integer {key}
}


class Voyageur {
	nom : string
	prenom : string
	adresse : Adresse
	tel : string {key}
}

class VoyageurRegulier {
	numeroCarte : integer {key}
}

class StatutCarte {
	intitulé : string {key}
}


class Transport {
	type : TypeTransport
	ville : string
}

class Hotel {
	nom : string
	adresse : Adresse
	ville : string
}


class Gare {
	nom : string
	ville : string
	adresse : Adresse
	zonehoraire : smallint {∈ ⟦-12; 12⟧}
}

class Ligne {
	numero : integer {key}
}

class LigneDessert {
	ordre : integer {>= 0}
}

class Voyage {
	heureDepart : Time
}

class Plannification {
	dateDepart : Date
	dateFin : Date
	lundi : bool
	mardi : bool
	mercredi : bool
	jeudi : bool
	vendredi : bool
	samedi : bool
	dimanche : bool
}

class JourException {
	jour : Date {key}
	ajout : bool
}

class VoyageDessert {
	heureDepart : Time
	heureArrivee : Time
}

class Trajet {
	numeroTrajet : integer {local key, >=0}
	numeroPlace : integer {>= 0}
	prix() : float
}


class Billet {
	assurance : bool
}

class TypePaiement {
	intitulé : string {key}
}



class TypeTransport <<enumeration>> {
	Bus
	Taxi
}


class Adresse <<dataType>> {
	numeroVoie : Integer
	nomRue : string
	codePostal : string[5]
}


Transport "0..*" - - "1..*" Gare : desservir >

Hotel "0..*" - "1..*" Gare : est proche de >


Voyageur <|- VoyageurRegulier

VoyageurRegulier "0..*" - "1" StatutCarte : a comme statut >


Train "1..*" - "1" TypeTrain : est de type >


Ligne "1..*" - - "2..*" Gare
(Ligne, Gare) . LigneDessert

TypeTrain "1" - - "1..*" Ligne : peut circuler >


Voyage "0..*" - - "2..*" Gare
(Voyage, Gare) . VoyageDessert

Voyage "1..*" - "1" Ligne : est programmé sur >

Plannification "0..*" - "0..*" Voyage : plannifier >

JourException "0..*" - "0..*" Plannification : impacter >

Voyage "0..*" - "1" Train : assuré par >

Trajet "0..*" - "1" Voyage : appartenir >


Billet *- "1..*" Trajet

Voyageur "1" - - "1..*" Billet : reserver >

Billet "0..*" - - "1" TypePaiement : payer >



note "Sur une ligne ne peut circuler qu'un certain type de train" as N2
Ligne .. N2

note "{(nom, ville) key}" as N3
Gare .. N3

note "{heureArrivee < heureDepart}" as N4
VoyageDessert .. N4

note "Pour un voyage donné, on ne peut pas avoir deux trajets à la même place aux mêmes arrêts" as N5
Trajet .. N5

note "{(nom, ville) key}" as N8
Hotel . N8

note "{dateDepart < dateFin}" as N9
Plannification .. N9



hide class circle

@enduml

PlantUML version 1.2022.5(Sat Apr 30 12:55:52 CEST 2022)
(LGPL source distribution)
Java Runtime: OpenJDK Runtime Environment
JVM: OpenJDK 64-Bit Server VM
Default Encoding: UTF-8
Language: fr
Country: FR
--></g></svg>