<?xml version="1.0" encoding="UTF-8" standalone="no"?><svg xmlns="http://www.w3.org/2000/svg" xmlns:xlink="http://www.w3.org/1999/xlink" contentStyleType="text/css" height="1570px" preserveAspectRatio="none" style="width:1497px;height:1570px;background:#FFFFFF;" version="1.1" viewBox="0 0 1497 1570" width="1497px" zoomAndPan="magnify"><defs/><g><!--MD5=[219e3b0e571a795e7845d490f5dd3922]
class TypeTrain--><g id="elem_TypeTrain"><rect codeLine="4" fill="#F1F1F1" height="123.7813" id="TypeTrain" rx="2.5" ry="2.5" style="stroke:#181818;stroke-width:0.5;" width="209" x="587.5" y="881"/><text fill="#000000" font-family="sans-serif" font-size="14" lengthAdjust="spacing" textLength="68" x="658" y="898.9951">TypeTrain</text><line style="stroke:#181818;stroke-width:0.5;" x1="588.5" x2="795.5" y1="907.2969" y2="907.2969"/><text fill="#000000" font-family="sans-serif" font-size="14" lengthAdjust="spacing" textLength="129" x="593.5" y="924.292">nom : string {key}</text><text fill="#000000" font-family="sans-serif" font-size="14" lengthAdjust="spacing" textLength="176" x="593.5" y="940.5889">nbPlace : integer {&gt;= 0}</text><text fill="#000000" font-family="sans-serif" font-size="14" lengthAdjust="spacing" textLength="197" x="593.5" y="956.8857">vitesseMax : Integer {&gt;= 0}</text><text fill="#000000" font-family="sans-serif" font-size="14" lengthAdjust="spacing" textLength="159" x="593.5" y="973.1826">aPremiereClasse : bool</text><text fill="#000000" font-family="sans-serif" font-size="14" lengthAdjust="spacing" textLength="158" x="593.5" y="989.4795">coutHeure : float {&gt;0}</text><line style="stroke:#181818;stroke-width:0.5;" x1="588.5" x2="795.5" y1="996.7813" y2="996.7813"/></g><!--MD5=[ff74e0f0bb3fa51f8c743cb54bdb5b13]
class Train--><g id="elem_Train"><rect codeLine="12" fill="#F1F1F1" height="58.5938" id="Train" rx="2.5" ry="2.5" style="stroke:#181818;stroke-width:0.5;" width="174" x="605" y="737"/><text fill="#000000" font-family="sans-serif" font-size="14" lengthAdjust="spacing" textLength="34" x="675" y="754.9951">Train</text><line style="stroke:#181818;stroke-width:0.5;" x1="606" x2="778" y1="763.2969" y2="763.2969"/><text fill="#000000" font-family="sans-serif" font-size="14" lengthAdjust="spacing" textLength="162" x="611" y="780.292">numero : integer {key}</text><line style="stroke:#181818;stroke-width:0.5;" x1="606" x2="778" y1="787.5938" y2="787.5938"/></g><!--MD5=[29fd02854dc779f7f51704ab7ef04435]
class Voyageur--><g id="elem_Voyageur"><rect codeLine="17" fill="#F1F1F1" height="107.4844" id="Voyageur" rx="2.5" ry="2.5" style="stroke:#181818;stroke-width:0.5;" width="138" x="763" y="7"/><text fill="#000000" font-family="sans-serif" font-size="14" lengthAdjust="spacing" textLength="65" x="799.5" y="24.9951">Voyageur</text><line style="stroke:#181818;stroke-width:0.5;" x1="764" x2="900" y1="33.2969" y2="33.2969"/><text fill="#000000" font-family="sans-serif" font-size="14" lengthAdjust="spacing" textLength="83" x="769" y="50.292">nom : string</text><text fill="#000000" font-family="sans-serif" font-size="14" lengthAdjust="spacing" textLength="106" x="769" y="66.5889">prenom : string</text><text fill="#000000" font-family="sans-serif" font-size="14" lengthAdjust="spacing" textLength="126" x="769" y="82.8857">adresse : Adresse</text><text fill="#000000" font-family="sans-serif" font-size="14" lengthAdjust="spacing" textLength="115" x="769" y="99.1826">tel : string {key}</text><line style="stroke:#181818;stroke-width:0.5;" x1="764" x2="900" y1="106.4844" y2="106.4844"/></g><!--MD5=[769423b84427c558f4ffad427eb9628e]
class VoyageurRegulier--><g id="elem_VoyageurRegulier"><rect codeLine="24" fill="#F1F1F1" height="58.5938" id="VoyageurRegulier" rx="2.5" ry="2.5" style="stroke:#181818;stroke-width:0.5;" width="211" x="624.5" y="191"/><text fill="#000000" font-family="sans-serif" font-size="14" lengthAdjust="spacing" textLength="122" x="669" y="208.9951">VoyageurRegulier</text><line style="stroke:#181818;stroke-width:0.5;" x1="625.5" x2="834.5" y1="217.2969" y2="217.2969"/><text fill="#000000" font-family="sans-serif" font-size="14" lengthAdjust="spacing" textLength="199" x="630.5" y="234.292">numeroCarte : integer {key}</text><line style="stroke:#181818;stroke-width:0.5;" x1="625.5" x2="834.5" y1="241.5938" y2="241.5938"/></g><!--MD5=[d0d6d9f3b9d120ca1d89ce4c1be214ae]
class StatutCarte--><g id="elem_StatutCarte"><rect codeLine="28" fill="#F1F1F1" height="58.5938" id="StatutCarte" rx="2.5" ry="2.5" style="stroke:#181818;stroke-width:0.5;" width="156" x="652" y="392"/><text fill="#000000" font-family="sans-serif" font-size="14" lengthAdjust="spacing" textLength="78" x="691" y="409.9951">StatutCarte</text><line style="stroke:#181818;stroke-width:0.5;" x1="653" x2="807" y1="418.2969" y2="418.2969"/><text fill="#000000" font-family="sans-serif" font-size="14" lengthAdjust="spacing" textLength="144" x="658" y="435.292">intitulé : string {key}</text><line style="stroke:#181818;stroke-width:0.5;" x1="653" x2="807" y1="442.5938" y2="442.5938"/></g><!--MD5=[ea193e58bf01a8bb640ee5c4ebd1a9a0]
class Transport--><g id="elem_Transport"><rect codeLine="33" fill="#F1F1F1" height="74.8906" id="Transport" rx="2.5" ry="2.5" style="stroke:#181818;stroke-width:0.5;" width="156" x="1334" y="1210"/><text fill="#000000" font-family="sans-serif" font-size="14" lengthAdjust="spacing" textLength="67" x="1378.5" y="1227.9951">Transport</text><line style="stroke:#181818;stroke-width:0.5;" x1="1335" x2="1489" y1="1236.2969" y2="1236.2969"/><text fill="#000000" font-family="sans-serif" font-size="14" lengthAdjust="spacing" textLength="144" x="1340" y="1253.292">type : TypeTransport</text><text fill="#000000" font-family="sans-serif" font-size="14" lengthAdjust="spacing" textLength="77" x="1340" y="1269.5889">ville : string</text><line style="stroke:#181818;stroke-width:0.5;" x1="1335" x2="1489" y1="1276.8906" y2="1276.8906"/></g><!--MD5=[3110dbef8258a6b966b2e55d3546d21d]
class Hotel--><g id="elem_Hotel"><rect codeLine="38" fill="#F1F1F1" height="91.1875" id="Hotel" rx="2.5" ry="2.5" style="stroke:#181818;stroke-width:0.5;" width="138" x="992" y="1202"/><text fill="#000000" font-family="sans-serif" font-size="14" lengthAdjust="spacing" textLength="36" x="1043" y="1219.9951">Hotel</text><line style="stroke:#181818;stroke-width:0.5;" x1="993" x2="1129" y1="1228.2969" y2="1228.2969"/><text fill="#000000" font-family="sans-serif" font-size="14" lengthAdjust="spacing" textLength="83" x="998" y="1245.292">nom : string</text><text fill="#000000" font-family="sans-serif" font-size="14" lengthAdjust="spacing" textLength="126" x="998" y="1261.5889">adresse : Adresse</text><text fill="#000000" font-family="sans-serif" font-size="14" lengthAdjust="spacing" textLength="77" x="998" y="1277.8857">ville : string</text><line style="stroke:#181818;stroke-width:0.5;" x1="993" x2="1129" y1="1285.1875" y2="1285.1875"/></g><!--MD5=[dd6f0fbd4f45e5ee36d89a4344f439d9]
class Gare--><g id="elem_Gare"><rect codeLine="45" fill="#F1F1F1" height="107.4844" id="Gare" rx="2.5" ry="2.5" style="stroke:#181818;stroke-width:0.5;" width="147" x="870.5" y="1370"/><text fill="#000000" font-family="sans-serif" font-size="14" lengthAdjust="spacing" textLength="33" x="927.5" y="1387.9951">Gare</text><line style="stroke:#181818;stroke-width:0.5;" x1="871.5" x2="1016.5" y1="1396.2969" y2="1396.2969"/><text fill="#000000" font-family="sans-serif" font-size="14" lengthAdjust="spacing" textLength="83" x="876.5" y="1413.292">nom : string</text><text fill="#000000" font-family="sans-serif" font-size="14" lengthAdjust="spacing" textLength="77" x="876.5" y="1429.5889">ville : string</text><text fill="#000000" font-family="sans-serif" font-size="14" lengthAdjust="spacing" textLength="126" x="876.5" y="1445.8857">adresse : Adresse</text><text fill="#000000" font-family="sans-serif" font-size="14" lengthAdjust="spacing" textLength="135" x="876.5" y="1462.1826">zonehoraire : string</text><line style="stroke:#181818;stroke-width:0.5;" x1="871.5" x2="1016.5" y1="1469.4844" y2="1469.4844"/></g><!--MD5=[c4d7de58b6b74e0d187415ecc51ab732]
class Ligne--><g id="elem_Ligne"><rect codeLine="52" fill="#F1F1F1" height="58.5938" id="Ligne" rx="2.5" ry="2.5" style="stroke:#181818;stroke-width:0.5;" width="174" x="648" y="1082"/><text fill="#000000" font-family="sans-serif" font-size="14" lengthAdjust="spacing" textLength="37" x="716.5" y="1099.9951">Ligne</text><line style="stroke:#181818;stroke-width:0.5;" x1="649" x2="821" y1="1108.2969" y2="1108.2969"/><text fill="#000000" font-family="sans-serif" font-size="14" lengthAdjust="spacing" textLength="162" x="654" y="1125.292">numero : integer {key}</text><line style="stroke:#181818;stroke-width:0.5;" x1="649" x2="821" y1="1132.5938" y2="1132.5938"/></g><!--MD5=[1b851f8443963f4c05b7f43cd561e329]
class LigneDessert--><g id="elem_LigneDessert"><rect codeLine="56" fill="#F1F1F1" height="58.5938" id="LigneDessert" rx="2.5" ry="2.5" style="stroke:#181818;stroke-width:0.5;" width="170" x="787" y="1218"/><text fill="#000000" font-family="sans-serif" font-size="14" lengthAdjust="spacing" textLength="92" x="826" y="1235.9951">LigneDessert</text><line style="stroke:#181818;stroke-width:0.5;" x1="788" x2="956" y1="1244.2969" y2="1244.2969"/><text fill="#000000" font-family="sans-serif" font-size="14" lengthAdjust="spacing" textLength="158" x="793" y="1261.292">ordre : integer {&gt;= 0}</text><line style="stroke:#181818;stroke-width:0.5;" x1="788" x2="956" y1="1268.5938" y2="1268.5938"/></g><!--MD5=[2b591347219e2d308bdf301555c4d62b]
class Voyage--><g id="elem_Voyage"><rect codeLine="60" fill="#F1F1F1" height="58.5938" id="Voyage" rx="2.5" ry="2.5" style="stroke:#181818;stroke-width:0.5;" width="147" x="618.5" y="593"/><text fill="#000000" font-family="sans-serif" font-size="14" lengthAdjust="spacing" textLength="51" x="666.5" y="610.9951">Voyage</text><line style="stroke:#181818;stroke-width:0.5;" x1="619.5" x2="764.5" y1="619.2969" y2="619.2969"/><text fill="#000000" font-family="sans-serif" font-size="14" lengthAdjust="spacing" textLength="135" x="624.5" y="636.292">heureDepart : Time</text><line style="stroke:#181818;stroke-width:0.5;" x1="619.5" x2="764.5" y1="643.5938" y2="643.5938"/></g><!--MD5=[cf01e16a3306166fc0401e59043eba98]
class Plannification--><g id="elem_Plannification"><rect codeLine="64" fill="#F1F1F1" height="188.9688" id="Plannification" rx="2.5" ry="2.5" style="stroke:#181818;stroke-width:0.5;" width="136" x="244" y="327"/><text fill="#000000" font-family="sans-serif" font-size="14" lengthAdjust="spacing" textLength="90" x="267" y="344.9951">Plannification</text><line style="stroke:#181818;stroke-width:0.5;" x1="245" x2="379" y1="353.2969" y2="353.2969"/><text fill="#000000" font-family="sans-serif" font-size="14" lengthAdjust="spacing" textLength="124" x="250" y="370.292">dateDepart : Date</text><text fill="#000000" font-family="sans-serif" font-size="14" lengthAdjust="spacing" textLength="97" x="250" y="386.5889">dateFin : Date</text><text fill="#000000" font-family="sans-serif" font-size="14" lengthAdjust="spacing" textLength="76" x="250" y="402.8857">lundi : bool</text><text fill="#000000" font-family="sans-serif" font-size="14" lengthAdjust="spacing" textLength="81" x="250" y="419.1826">mardi : bool</text><text fill="#000000" font-family="sans-serif" font-size="14" lengthAdjust="spacing" textLength="104" x="250" y="435.4795">mercredi : bool</text><text fill="#000000" font-family="sans-serif" font-size="14" lengthAdjust="spacing" textLength="76" x="250" y="451.7764">jeudi : bool</text><text fill="#000000" font-family="sans-serif" font-size="14" lengthAdjust="spacing" textLength="103" x="250" y="468.0732">vendredi : bool</text><text fill="#000000" font-family="sans-serif" font-size="14" lengthAdjust="spacing" textLength="93" x="250" y="484.3701">samedi : bool</text><text fill="#000000" font-family="sans-serif" font-size="14" lengthAdjust="spacing" textLength="111" x="250" y="500.667">dimanche : bool</text><line style="stroke:#181818;stroke-width:0.5;" x1="245" x2="379" y1="507.9688" y2="507.9688"/></g><!--MD5=[cdf1c16f361a4d58abb19711c9bdfb91]
class JourException--><g id="elem_JourException"><rect codeLine="76" fill="#F1F1F1" height="74.8906" id="JourException" rx="2.5" ry="2.5" style="stroke:#181818;stroke-width:0.5;" width="130" x="7" y="384"/><text fill="#000000" font-family="sans-serif" font-size="14" lengthAdjust="spacing" textLength="94" x="25" y="401.9951">JourException</text><line style="stroke:#181818;stroke-width:0.5;" x1="8" x2="136" y1="410.2969" y2="410.2969"/><text fill="#000000" font-family="sans-serif" font-size="14" lengthAdjust="spacing" textLength="118" x="13" y="427.292">jour : Date {key}</text><text fill="#000000" font-family="sans-serif" font-size="14" lengthAdjust="spacing" textLength="77" x="13" y="443.5889">ajout : bool</text><line style="stroke:#181818;stroke-width:0.5;" x1="8" x2="136" y1="450.8906" y2="450.8906"/></g><!--MD5=[e3e82e52c8be264d7330cb7d2eaa7151]
class VoyageDessert--><g id="elem_VoyageDessert"><rect codeLine="81" fill="#F1F1F1" height="74.8906" id="VoyageDessert" rx="2.5" ry="2.5" style="stroke:#181818;stroke-width:0.5;" width="147" x="369.5" y="729"/><text fill="#000000" font-family="sans-serif" font-size="14" lengthAdjust="spacing" textLength="106" x="390" y="746.9951">VoyageDessert</text><line style="stroke:#181818;stroke-width:0.5;" x1="370.5" x2="515.5" y1="755.2969" y2="755.2969"/><text fill="#000000" font-family="sans-serif" font-size="14" lengthAdjust="spacing" textLength="135" x="375.5" y="772.292">heureDepart : Time</text><text fill="#000000" font-family="sans-serif" font-size="14" lengthAdjust="spacing" textLength="135" x="375.5" y="788.5889">heureArrivee : Time</text><line style="stroke:#181818;stroke-width:0.5;" x1="370.5" x2="515.5" y1="795.8906" y2="795.8906"/></g><!--MD5=[5d57f717c5d5963ea0d5127ec122f9f6]
class Trajet--><g id="elem_Trajet"><rect codeLine="86" fill="#F1F1F1" height="91.1875" id="Trajet" rx="2.5" ry="2.5" style="stroke:#181818;stroke-width:0.5;" width="289" x="1034.5" y="376"/><text fill="#000000" font-family="sans-serif" font-size="14" lengthAdjust="spacing" textLength="39" x="1159.5" y="393.9951">Trajet</text><line style="stroke:#181818;stroke-width:0.5;" x1="1035.5" x2="1322.5" y1="402.2969" y2="402.2969"/><text fill="#000000" font-family="sans-serif" font-size="14" lengthAdjust="spacing" textLength="277" x="1040.5" y="419.292">numeroTrajet : integer {local key, &gt;=0}</text><text fill="#000000" font-family="sans-serif" font-size="14" lengthAdjust="spacing" textLength="212" x="1040.5" y="435.5889">numeroPlace : integer {&gt;= 0}</text><line style="stroke:#181818;stroke-width:0.5;" x1="1035.5" x2="1322.5" y1="442.8906" y2="442.8906"/><text fill="#000000" font-family="sans-serif" font-size="14" lengthAdjust="spacing" textLength="76" x="1040.5" y="459.8857">prix() : float</text></g><!--MD5=[2f53d364b4e3b7d802afc29f72dce69f]
class Billet--><g id="elem_Billet"><rect codeLine="93" fill="#F1F1F1" height="58.5938" id="Billet" rx="2.5" ry="2.5" style="stroke:#181818;stroke-width:0.5;" width="127" x="870.5" y="191"/><text fill="#000000" font-family="sans-serif" font-size="14" lengthAdjust="spacing" textLength="33" x="917.5" y="208.9951">Billet</text><line style="stroke:#181818;stroke-width:0.5;" x1="871.5" x2="996.5" y1="217.2969" y2="217.2969"/><text fill="#000000" font-family="sans-serif" font-size="14" lengthAdjust="spacing" textLength="115" x="876.5" y="234.292">assurance : bool</text><line style="stroke:#181818;stroke-width:0.5;" x1="871.5" x2="996.5" y1="241.5938" y2="241.5938"/></g><!--MD5=[baa9984992e9f8642779104e82881e55]
class TypePaiement--><g id="elem_TypePaiement"><rect codeLine="97" fill="#F1F1F1" height="58.5938" id="TypePaiement" rx="2.5" ry="2.5" style="stroke:#181818;stroke-width:0.5;" width="156" x="843" y="392"/><text fill="#000000" font-family="sans-serif" font-size="14" lengthAdjust="spacing" textLength="99" x="871.5" y="409.9951">TypePaiement</text><line style="stroke:#181818;stroke-width:0.5;" x1="844" x2="998" y1="418.2969" y2="418.2969"/><text fill="#000000" font-family="sans-serif" font-size="14" lengthAdjust="spacing" textLength="144" x="849" y="435.292">intitulé : string {key}</text><line style="stroke:#181818;stroke-width:0.5;" x1="844" x2="998" y1="442.5938" y2="442.5938"/></g><!--MD5=[cbf682cb6c5baf3a24cd44b737805cda]
class TypeTransport--><g id="elem_TypeTransport"><rect codeLine="104" fill="#F1F1F1" height="88.8594" id="TypeTransport" rx="2.5" ry="2.5" style="stroke:#181818;stroke-width:0.5;" width="107" x="936.5" y="16"/><text fill="#000000" font-family="sans-serif" font-size="12" font-style="italic" lengthAdjust="spacing" textLength="94" x="943" y="32.1387">«enumeration»</text><text fill="#000000" font-family="sans-serif" font-size="14" lengthAdjust="spacing" textLength="101" x="939.5" y="47.9639">TypeTransport</text><line style="stroke:#181818;stroke-width:0.5;" x1="937.5" x2="1042.5" y1="56.2656" y2="56.2656"/><text fill="#000000" font-family="sans-serif" font-size="14" lengthAdjust="spacing" textLength="27" x="942.5" y="73.2607">Bus</text><text fill="#000000" font-family="sans-serif" font-size="14" lengthAdjust="spacing" textLength="27" x="942.5" y="89.5576">Taxi</text><line style="stroke:#181818;stroke-width:0.5;" x1="937.5" x2="1042.5" y1="96.8594" y2="96.8594"/></g><!--MD5=[70c811998a0d7544d2536fae1accd5d3]
class Adresse--><g id="elem_Adresse"><rect codeLine="111" fill="#F1F1F1" height="105.1563" id="Adresse" rx="2.5" ry="2.5" style="stroke:#181818;stroke-width:0.5;" width="160" x="1079" y="8"/><text fill="#000000" font-family="sans-serif" font-size="12" font-style="italic" lengthAdjust="spacing" textLength="73" x="1122.5" y="24.1387">«dataType»</text><text fill="#000000" font-family="sans-serif" font-size="14" lengthAdjust="spacing" textLength="57" x="1130.5" y="39.9639">Adresse</text><line style="stroke:#181818;stroke-width:0.5;" x1="1080" x2="1238" y1="48.2656" y2="48.2656"/><text fill="#000000" font-family="sans-serif" font-size="14" lengthAdjust="spacing" textLength="146" x="1085" y="65.2607">numeroVoie : Integer</text><text fill="#000000" font-family="sans-serif" font-size="14" lengthAdjust="spacing" textLength="111" x="1085" y="81.5576">nomRue : string</text><text fill="#000000" font-family="sans-serif" font-size="14" lengthAdjust="spacing" textLength="148" x="1085" y="97.8545">codePostal : string[5]</text><line style="stroke:#181818;stroke-width:0.5;" x1="1080" x2="1238" y1="105.1563" y2="105.1563"/></g><ellipse cx="750" cy="1247.5" fill="#000000" rx="2" ry="2" style="stroke:none;stroke-width:1.0;"/><ellipse cx="332" cy="766.5" fill="#000000" rx="2" ry="2" style="stroke:none;stroke-width:1.0;"/><g id="elem_N1"><path d="M700.5,1538 L700.5,1563.1328 A0,0 0 0 0 700.5,1563.1328 L957.5,1563.1328 A0,0 0 0 0 957.5,1563.1328 L957.5,1548 L947.5,1538 L843.88,1538 L895.56,1477.15 L835.88,1538 L700.5,1538 A0,0 0 0 0 700.5,1538 " fill="#FEFFDD" style="stroke:#181818;stroke-width:0.5;"/><path d="M947.5,1538 L947.5,1548 L957.5,1548 L947.5,1538 " fill="#FEFFDD" style="stroke:#181818;stroke-width:0.5;"/><text fill="#000000" font-family="sans-serif" font-size="13" lengthAdjust="spacing" textLength="236" x="706.5" y="1555.0669">La zone horaire est sous format GMT</text></g><g id="elem_N2"><path d="M333,1235 L333,1260.1328 A0,0 0 0 0 333,1260.1328 L713,1260.1328 A0,0 0 0 0 713,1260.1328 L713,1245 L703,1235 L545.33,1235 L689.78,1141.08 L537.33,1235 L333,1235 A0,0 0 0 0 333,1235 " fill="#FEFFDD" style="stroke:#181818;stroke-width:0.5;"/><path d="M703,1235 L703,1245 L713,1245 L703,1235 " fill="#FEFFDD" style="stroke:#181818;stroke-width:0.5;"/><text fill="#000000" font-family="sans-serif" font-size="13" lengthAdjust="spacing" textLength="359" x="339" y="1252.0669">Sur une ligne ne peut circuler qu'un certain type de train</text></g><g id="elem_N3"><path d="M993,1538 L993,1563.1328 A0,0 0 0 0 993,1563.1328 L1127,1563.1328 A0,0 0 0 0 1127,1563.1328 L1127,1548 L1117,1538 L1053.03,1538 L992.86,1477.15 L1045.03,1538 L993,1538 A0,0 0 0 0 993,1538 " fill="#FEFFDD" style="stroke:#181818;stroke-width:0.5;"/><path d="M1117,1538 L1117,1548 L1127,1548 L1117,1538 " fill="#FEFFDD" style="stroke:#181818;stroke-width:0.5;"/><text fill="#000000" font-family="sans-serif" font-size="13" lengthAdjust="spacing" textLength="113" x="999" y="1555.0669">{(nom, ville) key}</text></g><g id="elem_N4"><path d="M333.5,930.5 L333.5,955.6328 A0,0 0 0 0 333.5,955.6328 L552.5,955.6328 A0,0 0 0 0 552.5,955.6328 L552.5,940.5 L542.5,930.5 L447,930.5 L443,804.08 L439,930.5 L333.5,930.5 A0,0 0 0 0 333.5,930.5 " fill="#FEFFDD" style="stroke:#181818;stroke-width:0.5;"/><path d="M542.5,930.5 L542.5,940.5 L552.5,940.5 L542.5,930.5 " fill="#FEFFDD" style="stroke:#181818;stroke-width:0.5;"/><text fill="#000000" font-family="sans-serif" font-size="13" lengthAdjust="spacing" textLength="198" x="339.5" y="947.5669">{heureArrivee &lt; heureDepart}</text></g><g id="elem_N5"><path d="M871,610 L871,635.1328 A0,0 0 0 0 871,635.1328 L1487,635.1328 A0,0 0 0 0 1487,635.1328 L1487,620 L1477,610 L1183,610 L1179,467.16 L1175,610 L871,610 A0,0 0 0 0 871,610 " fill="#FEFFDD" style="stroke:#181818;stroke-width:0.5;"/><path d="M1477,610 L1477,620 L1487,620 L1477,610 " fill="#FEFFDD" style="stroke:#181818;stroke-width:0.5;"/><text fill="#000000" font-family="sans-serif" font-size="13" lengthAdjust="spacing" textLength="595" x="877" y="627.0669">Pour un voyage donné, on ne peut pas avoir deux trajets à la même place aux mêmes arrêts</text></g><g id="elem_N6"><path d="M415.5,409 L415.5,417.5 L380.13,421.5 L415.5,425.5 L415.5,434.1328 A0,0 0 0 0 415.5,434.1328 L616.5,434.1328 A0,0 0 0 0 616.5,434.1328 L616.5,419 L606.5,409 L415.5,409 A0,0 0 0 0 415.5,409 " fill="#FEFFDD" style="stroke:#181818;stroke-width:0.5;"/><path d="M606.5,409 L606.5,419 L616.5,419 L606.5,409 " fill="#FEFFDD" style="stroke:#181818;stroke-width:0.5;"/><text fill="#000000" font-family="sans-serif" font-size="13" lengthAdjust="spacing" textLength="180" x="421.5" y="426.0669">{(dateDepart, dateFin) key}</text></g><g id="elem_N8"><path d="M1165,1235 L1165,1243.5 L1130.13,1247.5 L1165,1251.5 L1165,1260.1328 A0,0 0 0 0 1165,1260.1328 L1299,1260.1328 A0,0 0 0 0 1299,1260.1328 L1299,1245 L1289,1235 L1165,1235 A0,0 0 0 0 1165,1235 " fill="#FEFFDD" style="stroke:#181818;stroke-width:0.5;"/><path d="M1289,1235 L1289,1245 L1299,1245 L1289,1235 " fill="#FEFFDD" style="stroke:#181818;stroke-width:0.5;"/><text fill="#000000" font-family="sans-serif" font-size="13" lengthAdjust="spacing" textLength="113" x="1171" y="1252.0669">{(nom, ville) key}</text></g><g id="elem_N9"><path d="M224,610 L224,635.1328 A0,0 0 0 0 224,635.1328 L400,635.1328 A0,0 0 0 0 400,635.1328 L400,620 L390,610 L316,610 L312,516.17 L308,610 L224,610 A0,0 0 0 0 224,610 " fill="#FEFFDD" style="stroke:#181818;stroke-width:0.5;"/><path d="M390,610 L390,620 L400,620 L390,610 " fill="#FEFFDD" style="stroke:#181818;stroke-width:0.5;"/><text fill="#000000" font-family="sans-serif" font-size="13" lengthAdjust="spacing" textLength="155" x="230" y="627.0669">{dateDepart &lt; dateFin}</text></g><!--MD5=[eb160190a4659c6f28f5b1a5fd554492]
link Transport to Gare--><g id="link_Transport_Gare"><path codeLine="119" d="M1335.83,1285.02 C1329.49,1287.8 1323.16,1290.5 1317,1293 C1214.76,1334.56 1093.59,1375.07 1017.74,1399.41 " fill="none" id="Transport-Gare" style="stroke:#181818;stroke-width:1.0;"/><polygon fill="#000000" points="1236.295,1333.2584,1245.801,1332.9631,1243.8119,1327.432,1236.295,1333.2584" style="stroke:#000000;stroke-width:1.0;"/><text fill="#000000" font-family="sans-serif" font-size="13" lengthAdjust="spacing" textLength="58" x="1250" y="1336.0669">desservir</text><text fill="#000000" font-family="sans-serif" font-size="13" lengthAdjust="spacing" textLength="23" x="1303.2411" y="1302.0242">0..*</text><text fill="#000000" font-family="sans-serif" font-size="13" lengthAdjust="spacing" textLength="23" x="1025.5981" y="1393.5485">1..*</text></g><!--MD5=[f7a9a44cfb7f51e7ca6abc4dd90e94cd]
link Hotel to Gare--><g id="link_Hotel_Gare"><path codeLine="121" d="M1030.87,1293.31 C1015.16,1316.67 995.85,1345.39 979.43,1369.81 " fill="none" id="Hotel-Gare" style="stroke:#181818;stroke-width:1.0;"/><polygon fill="#000000" points="1012.21,1335.7156,1019.696,1329.8496,1014.8183,1326.5697,1012.21,1335.7156" style="stroke:#000000;stroke-width:1.0;"/><text fill="#000000" font-family="sans-serif" font-size="13" lengthAdjust="spacing" textLength="88" x="1024" y="1336.0669">est proche de</text><text fill="#000000" font-family="sans-serif" font-size="13" lengthAdjust="spacing" textLength="23" x="1001.7556" y="1313.2028">0..*</text><text fill="#000000" font-family="sans-serif" font-size="13" lengthAdjust="spacing" textLength="23" x="959.496" y="1359.0144">1..*</text></g><!--MD5=[77104d82a9b955aed19097f8ffd1ac14]
reverse link Voyageur to VoyageurRegulier--><g id="link_Voyageur_VoyageurRegulier"><path codeLine="124" d="M787.14,130.99 C773.6,151.96 759.48,173.83 748.67,190.58 " fill="none" id="Voyageur-backto-VoyageurRegulier" style="stroke:#181818;stroke-width:1.0;"/><polygon fill="none" points="781.31,127.12,798.04,114.11,793.07,134.71,781.31,127.12" style="stroke:#181818;stroke-width:1.0;"/></g><!--MD5=[db40987b230ea6b165d6fe89d20d2591]
link VoyageurRegulier to StatutCarte--><g id="link_VoyageurRegulier_StatutCarte"><path codeLine="126" d="M730,250.01 C730,287.73 730,353.86 730,391.72 " fill="none" id="VoyageurRegulier-StatutCarte" style="stroke:#181818;stroke-width:1.0;"/><polygon fill="#000000" points="735,293.5664,737.9389,284.5213,732.0611,284.5213,735,293.5664" style="stroke:#000000;stroke-width:1.0;"/><text fill="#000000" font-family="sans-serif" font-size="13" lengthAdjust="spacing" textLength="103" x="744" y="293.0669">a comme statut</text><text fill="#000000" font-family="sans-serif" font-size="13" lengthAdjust="spacing" textLength="23" x="704.6281" y="269.7658">0..*</text><text fill="#000000" font-family="sans-serif" font-size="13" lengthAdjust="spacing" textLength="8" x="721.175" y="381.1535">1</text></g><!--MD5=[ebfe4f506484d4263f60bc9d8a1ece8d]
link Train to TypeTrain--><g id="link_Train_TypeTrain"><path codeLine="129" d="M692,796.32 C692,819.26 692,852.18 692,880.92 " fill="none" id="Train-TypeTrain" style="stroke:#181818;stroke-width:1.0;"/><polygon fill="#000000" points="697,847.5664,699.9389,838.5213,694.0611,838.5213,697,847.5664" style="stroke:#000000;stroke-width:1.0;"/><text fill="#000000" font-family="sans-serif" font-size="13" lengthAdjust="spacing" textLength="72" x="706" y="847.0669">est de type</text><text fill="#000000" font-family="sans-serif" font-size="13" lengthAdjust="spacing" textLength="23" x="666.8078" y="815.5524">1..*</text><text fill="#000000" font-family="sans-serif" font-size="13" lengthAdjust="spacing" textLength="8" x="683.5375" y="869.962">1</text></g><!--MD5=[84fdd08486f5b806aee016a36efdd152]
link Ligne to apoint27--><g id="link_Ligne_apoint27"><path d="M738.22,1141.25 C742.28,1177.54 748.87,1236.37 749.87,1245.34 " fill="none" id="Ligne-apoint27" style="stroke:#181818;stroke-width:1.0;"/><text fill="#000000" font-family="sans-serif" font-size="13" lengthAdjust="spacing" textLength="23" x="713.5899" y="1160.7036">1..*</text></g><!--MD5=[c5a5693a196c883f7f5f1309efbf7ef1]
link apoint27 to Gare--><g id="link_apoint27_Gare"><path d="M750.27,1249.72 C751.54,1255.24 757.34,1278.23 769,1293 C796.65,1328 835.99,1358.24 870.37,1380.69 " fill="none" id="apoint27-Gare" style="stroke:#181818;stroke-width:1.0;"/><text fill="#000000" font-family="sans-serif" font-size="13" lengthAdjust="spacing" textLength="23" x="839.5221" y="1373.1027">2..*</text></g><!--MD5=[c4b00628750cb58592dd3e3782b4e506]
link apoint27 to LigneDessert--><g id="link_apoint27_LigneDessert"><path d="M752.38,1247.5 C763.91,1247.5 775.43,1247.5 786.96,1247.5 " fill="none" id="apoint27-LigneDessert" style="stroke:#181818;stroke-width:1.0;stroke-dasharray:7.0,7.0;"/></g><!--MD5=[fbba489d159a1ca7ee22e33b427c2205]
link TypeTrain to Ligne--><g id="link_TypeTrain_Ligne"><path codeLine="135" d="M707.77,1005.05 C714.53,1031.23 722.1,1060.56 727.54,1081.63 " fill="none" id="TypeTrain-Ligne" style="stroke:#181818;stroke-width:1.0;"/><polygon fill="#000000" points="726.2498,1048.4077,726.8345,1038.9151,721.1432,1040.3844,726.2498,1048.4077" style="stroke:#000000;stroke-width:1.0;"/><text fill="#000000" font-family="sans-serif" font-size="13" lengthAdjust="spacing" textLength="79" x="734" y="1048.0669">peut circuler</text><text fill="#000000" font-family="sans-serif" font-size="13" lengthAdjust="spacing" textLength="8" x="701.0573" y="1024.7432">1</text><text fill="#000000" font-family="sans-serif" font-size="13" lengthAdjust="spacing" textLength="23" x="700.6295" y="1071.0449">1..*</text></g><!--MD5=[1ce977dd6453d9ac909609cc4dbe0105]
link Voyage to apoint34--><g id="link_Voyage_apoint34"><path d="M618.46,630.24 C544.02,640.46 429.17,665.93 352,729 C339.47,739.24 333.55,759.51 332.27,764.41 " fill="none" id="Voyage-apoint34" style="stroke:#181818;stroke-width:1.0;"/><text fill="#000000" font-family="sans-serif" font-size="13" lengthAdjust="spacing" textLength="23" x="587.6204" y="627.3539">0..*</text></g><!--MD5=[d51467c829b9a133bbec8b127bd4c86f]
link apoint34 to Gare--><g id="link_apoint34_Gare"><path d="M331.42,768.57 C325.7,779.15 280,866.13 280,942 C280,942 280,942 280,1248.5 C280,1369.46 697.52,1408 870.4,1418.77 " fill="none" id="apoint34-Gare" style="stroke:#181818;stroke-width:1.0;"/><text fill="#000000" font-family="sans-serif" font-size="13" lengthAdjust="spacing" textLength="23" x="839.5548" y="1414.6932">2..*</text></g><!--MD5=[db65698ec31852be5ae17aa4758c3b1c]
link apoint34 to VoyageDessert--><g id="link_apoint34_VoyageDessert"><path d="M334.17,766.5 C345.93,766.5 357.69,766.5 369.45,766.5 " fill="none" id="apoint34-VoyageDessert" style="stroke:#181818;stroke-width:1.0;stroke-dasharray:7.0,7.0;"/></g><!--MD5=[78444d35b2b96caea38500effcf21dc1]
link Voyage to Ligne--><g id="link_Voyage_Ligne"><path codeLine="141" d="M750.68,652.23 C762.78,660.42 774.43,670.35 783,682 C808.07,716.06 807.92,809.59 814,881 C820.45,956.81 857.77,984.85 822,1052 C815.67,1063.89 805.73,1073.79 794.79,1081.86 " fill="none" id="Voyage-Ligne" style="stroke:#181818;stroke-width:1.0;"/><polygon fill="#000000" points="817.5107,847.5403,819.5104,838.2423,813.6633,838.8426,817.5107,847.5403" style="stroke:#000000;stroke-width:1.0;"/><text fill="#000000" font-family="sans-serif" font-size="13" lengthAdjust="spacing" textLength="124" x="826" y="847.0669">est programmé sur</text><text fill="#000000" font-family="sans-serif" font-size="13" lengthAdjust="spacing" textLength="23" x="736.9686" y="671.6796">1..*</text><text fill="#000000" font-family="sans-serif" font-size="13" lengthAdjust="spacing" textLength="8" x="798.9941" y="1070.8615">1</text></g><!--MD5=[dbb29503f0bc14d96fd0da18e4a983ab]
link Plannification to Voyage--><g id="link_Plannification_Voyage"><path codeLine="143" d="M380.02,502.36 C385.83,507.3 391.84,511.91 398,516 C466.12,561.2 555.96,589.75 618.32,605.59 " fill="none" id="Plannification-Voyage" style="stroke:#181818;stroke-width:1.0;"/><polygon fill="#000000" points="490.588,556.5539,483.4564,550.2617,481.12,555.6553,490.588,556.5539" style="stroke:#000000;stroke-width:1.0;"/><text fill="#000000" font-family="sans-serif" font-size="13" lengthAdjust="spacing" textLength="58" x="495" y="559.0669">plannifier</text><text fill="#000000" font-family="sans-serif" font-size="13" lengthAdjust="spacing" textLength="23" x="388.2205" y="507.0006">0..*</text><text fill="#000000" font-family="sans-serif" font-size="13" lengthAdjust="spacing" textLength="23" x="587.4675" y="600.4314">0..*</text></g><!--MD5=[cd28fbf3f358f1f8fde1139cdeaa622e]
link JourException to Plannification--><g id="link_JourException_Plannification"><path codeLine="145" d="M137.26,421.5 C170.3,421.5 210.38,421.5 243.82,421.5 " fill="none" id="JourException-Plannification" style="stroke:#181818;stroke-width:1.0;"/><polygon fill="#000000" points="164.5,410.0664,155.4549,407.1275,155.4549,413.0053,164.5,410.0664" style="stroke:#000000;stroke-width:1.0;"/><text fill="#000000" font-family="sans-serif" font-size="13" lengthAdjust="spacing" textLength="57" x="168.5" y="414.5669">impacter</text><text fill="#000000" font-family="sans-serif" font-size="13" lengthAdjust="spacing" textLength="23" x="145.1759" y="434.3528">0..*</text><text fill="#000000" font-family="sans-serif" font-size="13" lengthAdjust="spacing" textLength="23" x="212.9765" y="434.3133">0..*</text></g><!--MD5=[74e58aeeeba35d7192febcf5cc1529c3]
link Voyage to Train--><g id="link_Voyage_Train"><path codeLine="147" d="M692,652.24 C692,676.87 692,712.18 692,736.81 " fill="none" id="Voyage-Train" style="stroke:#181818;stroke-width:1.0;"/><polygon fill="#000000" points="697,695.5664,699.9389,686.5213,694.0611,686.5213,697,695.5664" style="stroke:#000000;stroke-width:1.0;"/><text fill="#000000" font-family="sans-serif" font-size="13" lengthAdjust="spacing" textLength="68" x="706" y="695.0669">assuré par</text><text fill="#000000" font-family="sans-serif" font-size="13" lengthAdjust="spacing" textLength="23" x="666.7359" y="671.6916">0..*</text><text fill="#000000" font-family="sans-serif" font-size="13" lengthAdjust="spacing" textLength="8" x="683.125" y="725.8005">1</text></g><!--MD5=[9ea39919e0dcb6863049f26346c880de]
link Trajet to Voyage--><g id="link_Trajet_Voyage"><path codeLine="149" d="M1108.45,467.21 C1080.36,483.87 1047.31,502.1 1016,516 C932.73,552.96 832.4,583.63 765.66,602.21 " fill="none" id="Trajet-Voyage" style="stroke:#181818;stroke-width:1.0;"/><polygon fill="#000000" points="939.3478,556.3986,948.8406,555.8187,946.6868,550.3496,939.3478,556.3986" style="stroke:#000000;stroke-width:1.0;"/><text fill="#000000" font-family="sans-serif" font-size="13" lengthAdjust="spacing" textLength="66" x="953" y="559.0669">appartenir</text><text fill="#000000" font-family="sans-serif" font-size="13" lengthAdjust="spacing" textLength="23" x="1072.8861" y="487.4205">0..*</text><text fill="#000000" font-family="sans-serif" font-size="13" lengthAdjust="spacing" textLength="8" x="773.6687" y="596.4388">1</text></g><!--MD5=[c1164ec98c08fbe40301f559a6d026ea]
reverse link Billet to Trajet--><g id="link_Billet_Trajet"><path codeLine="152" d="M979.32,258.31 C1020.21,291.52 1080.45,340.46 1124.07,375.88 " fill="none" id="Billet-backto-Trajet" style="stroke:#181818;stroke-width:1.0;"/><polygon fill="#181818" points="969.1,250.01,971.2321,256.8987,978.4109,257.5801,976.2788,250.6914,969.1,250.01" style="stroke:#181818;stroke-width:1.0;"/><text fill="#000000" font-family="sans-serif" font-size="13" lengthAdjust="spacing" textLength="23" x="1090.8979" y="364.8087">1..*</text></g><!--MD5=[f1b5e5ea9c335262b19a95543e842897]
link Voyageur to Billet--><g id="link_Voyageur_Billet"><path codeLine="154" d="M865.96,114.11 C882.42,139.61 901.56,169.24 915.33,190.58 " fill="none" id="Voyageur-Billet" style="stroke:#181818;stroke-width:1.0;"/><polygon fill="#000000" points="903.712,156.767,901.275,147.574,896.3369,150.7621,903.712,156.767" style="stroke:#000000;stroke-width:1.0;"/><text fill="#000000" font-family="sans-serif" font-size="13" lengthAdjust="spacing" textLength="53" x="910" y="157.0669">reserver</text><text fill="#000000" font-family="sans-serif" font-size="13" lengthAdjust="spacing" textLength="8" x="861.9859" y="134.3649">1</text><text fill="#000000" font-family="sans-serif" font-size="13" lengthAdjust="spacing" textLength="23" x="886.1074" y="179.9846">1..*</text></g><!--MD5=[6ac24bdda190e27015508baeff5512d7]
link Billet to TypePaiement--><g id="link_Billet_TypePaiement"><path codeLine="156" d="M932.14,250.01 C929.67,287.73 925.35,353.86 922.88,391.72 " fill="none" id="Billet-TypePaiement" style="stroke:#181818;stroke-width:1.0;"/><polygon fill="#000000" points="935.674,293.5558,939.1964,284.7216,933.3311,284.3383,935.674,293.5558" style="stroke:#000000;stroke-width:1.0;"/><text fill="#000000" font-family="sans-serif" font-size="13" lengthAdjust="spacing" textLength="36" x="945" y="293.0669">payer</text><text fill="#000000" font-family="sans-serif" font-size="13" lengthAdjust="spacing" textLength="23" x="906.3845" y="269.7658">0..*</text><text fill="#000000" font-family="sans-serif" font-size="13" lengthAdjust="spacing" textLength="8" x="914.4428" y="381.1535">1</text></g><!--MD5=[25d1275822ad0171eec5453ae05b2496]
@startuml

' Classes

class TypeTrain {
	nom : string {key}
	nbPlace : integer {>= 0}
	vitesseMax : Integer {>= 0}
	aPremiereClasse : bool
	coutHeure : float {>0}
}

class Train {
	numero : integer {key}
}


class Voyageur {
	nom : string
	prenom : string
	adresse : Adresse
	tel : string {key}
}

class VoyageurRegulier {
	numeroCarte : integer {key}
}

class StatutCarte {
	intitulé : string {key}
}


class Transport {
	type : TypeTransport
	ville : string
}

class Hotel {
	nom : string
	adresse : Adresse
	ville : string
}


class Gare {
	nom : string
	ville : string
	adresse : Adresse
	zonehoraire : string
}

class Ligne {
	numero : integer {key}
}

class LigneDessert {
	ordre : integer {>= 0}
}

class Voyage {
	heureDepart : Time
}

class Plannification {
	dateDepart : Date
	dateFin : Date
	lundi : bool
	mardi : bool
	mercredi : bool
	jeudi : bool
	vendredi : bool
	samedi : bool
	dimanche : bool
}

class JourException {
	jour : Date {key}
	ajout : bool
}

class VoyageDessert {
	heureDepart : Time
	heureArrivee : Time
}

class Trajet {
	numeroTrajet : integer {local key, >=0}
	numeroPlace : integer {>= 0}
	prix() : float
}


class Billet {
	assurance : bool
}

class TypePaiement {
	intitulé : string {key}
}


' Enumerations

class TypeTransport <<enumeration>> {
	Bus
	Taxi
}

' DataTypes

class Adresse <<dataType>> {
	numeroVoie : Integer
	nomRue : string
	codePostal : string[5]
}

' Associations

Transport "0..*" - - "1..*" Gare : desservir >

Hotel "0..*" - - "1..*" Gare : est proche de >


Voyageur <|- - VoyageurRegulier

VoyageurRegulier "0..*" - - "1" StatutCarte : a comme statut >


Train "1..*" - - "1" TypeTrain : est de type >


Ligne "1..*" - - "2..*" Gare
(Ligne, Gare) .. LigneDessert

TypeTrain "1" - - "1..*" Ligne : peut circuler >


Voyage "0..*" - - "2..*" Gare
(Voyage, Gare) .. VoyageDessert

Voyage "1..*" - - "1" Ligne : est programmé sur >

Plannification "0..*" - - "0..*" Voyage : plannifier >

JourException "0..*" - "0..*" Plannification : impacter >

Voyage "0..*" - - "1" Train : assuré par >

Trajet "0..*" - - "1" Voyage : appartenir >


Billet *- - "1..*" Trajet

Voyageur "1" - - "1..*" Billet : reserver >

Billet "0..*" - - "1" TypePaiement : payer >


' Notes

note "La zone horaire est sous format GMT" as N1
Gare .. N1

note "Sur une ligne ne peut circuler qu'un certain type de train" as N2
Ligne .. N2

note "{(nom, ville) key}" as N3
Gare .. N3

note "{heureArrivee < heureDepart}" as N4
VoyageDessert .. N4

note "Pour un voyage donné, on ne peut pas avoir deux trajets à la même place aux mêmes arrêts" as N5
Trajet .. N5

note "{(dateDepart, dateFin) key}" as N6
Plannification . N6

note "{(nom, ville) key}" as N8
Hotel . N8

note "{dateDepart < dateFin}" as N9
Plannification .. N9

' note "Sur une même ligne, on ne peut pas avoir deux gares desservies dans le même ordre" as N7
' LigneDessert .. N7

' Config

hide class circle

@enduml

@startuml


class TypeTrain {
	nom : string {key}
	nbPlace : integer {>= 0}
	vitesseMax : Integer {>= 0}
	aPremiereClasse : bool
	coutHeure : float {>0}
}

class Train {
	numero : integer {key}
}


class Voyageur {
	nom : string
	prenom : string
	adresse : Adresse
	tel : string {key}
}

class VoyageurRegulier {
	numeroCarte : integer {key}
}

class StatutCarte {
	intitulé : string {key}
}


class Transport {
	type : TypeTransport
	ville : string
}

class Hotel {
	nom : string
	adresse : Adresse
	ville : string
}


class Gare {
	nom : string
	ville : string
	adresse : Adresse
	zonehoraire : string
}

class Ligne {
	numero : integer {key}
}

class LigneDessert {
	ordre : integer {>= 0}
}

class Voyage {
	heureDepart : Time
}

class Plannification {
	dateDepart : Date
	dateFin : Date
	lundi : bool
	mardi : bool
	mercredi : bool
	jeudi : bool
	vendredi : bool
	samedi : bool
	dimanche : bool
}

class JourException {
	jour : Date {key}
	ajout : bool
}

class VoyageDessert {
	heureDepart : Time
	heureArrivee : Time
}

class Trajet {
	numeroTrajet : integer {local key, >=0}
	numeroPlace : integer {>= 0}
	prix() : float
}


class Billet {
	assurance : bool
}

class TypePaiement {
	intitulé : string {key}
}



class TypeTransport <<enumeration>> {
	Bus
	Taxi
}


class Adresse <<dataType>> {
	numeroVoie : Integer
	nomRue : string
	codePostal : string[5]
}


Transport "0..*" - - "1..*" Gare : desservir >

Hotel "0..*" - - "1..*" Gare : est proche de >


Voyageur <|- - VoyageurRegulier

VoyageurRegulier "0..*" - - "1" StatutCarte : a comme statut >


Train "1..*" - - "1" TypeTrain : est de type >


Ligne "1..*" - - "2..*" Gare
(Ligne, Gare) .. LigneDessert

TypeTrain "1" - - "1..*" Ligne : peut circuler >


Voyage "0..*" - - "2..*" Gare
(Voyage, Gare) .. VoyageDessert

Voyage "1..*" - - "1" Ligne : est programmé sur >

Plannification "0..*" - - "0..*" Voyage : plannifier >

JourException "0..*" - "0..*" Plannification : impacter >

Voyage "0..*" - - "1" Train : assuré par >

Trajet "0..*" - - "1" Voyage : appartenir >


Billet *- - "1..*" Trajet

Voyageur "1" - - "1..*" Billet : reserver >

Billet "0..*" - - "1" TypePaiement : payer >



note "La zone horaire est sous format GMT" as N1
Gare .. N1

note "Sur une ligne ne peut circuler qu'un certain type de train" as N2
Ligne .. N2

note "{(nom, ville) key}" as N3
Gare .. N3

note "{heureArrivee < heureDepart}" as N4
VoyageDessert .. N4

note "Pour un voyage donné, on ne peut pas avoir deux trajets à la même place aux mêmes arrêts" as N5
Trajet .. N5

note "{(dateDepart, dateFin) key}" as N6
Plannification . N6

note "{(nom, ville) key}" as N8
Hotel . N8

note "{dateDepart < dateFin}" as N9
Plannification .. N9



hide class circle

@enduml

PlantUML version 1.2022.5(Sat Apr 30 12:55:52 CEST 2022)
(LGPL source distribution)
Java Runtime: OpenJDK Runtime Environment
JVM: OpenJDK 64-Bit Server VM
Default Encoding: UTF-8
Language: fr
Country: FR
--></g></svg>